<svg id="visual" viewBox="0 0 900 600" width="900" height="600" xmlns="http://www.w3.org/2000/svg" xmlns:xlink="http://www.w3.org/1999/xlink" version="1.1"><rect x="0" y="0" width="900" height="600" fill="#FFFFFF"></rect><defs><linearGradient id="grad1_0" x1="33.3%" y1="0%" x2="100%" y2="100%"><stop offset="20%" stop-color="#ffffff" stop-opacity="1"></stop><stop offset="80%" stop-color="#ffffff" stop-opacity="1"></stop></linearGradient></defs><defs><linearGradient id="grad2_0" x1="0%" y1="0%" x2="66.7%" y2="100%"><stop offset="20%" stop-color="#ffffff" stop-opacity="1"></stop><stop offset="80%" stop-color="#ffffff" stop-opacity="1"></stop></linearGradient></defs><g transform="translate(900, 0)"><path d="M0 486.7C-63.7 465.5 -127.3 444.2 -168 405.6C-208.7 367 -226.3 311 -276.5 276.5C-326.6 241.9 -409.2 228.8 -449.7 186.3C-490.2 143.8 -488.5 71.9 -486.7 0L0 0Z" fill="#fb2c36"></path></g><g transform="translate(0, 600)"><path d="M0 -486.7C48 -443 95.9 -399.3 158.4 -382.5C221 -365.6 298.1 -375.6 344.2 -344.2C390.3 -312.8 405.5 -239.9 424.1 -175.7C442.7 -111.4 464.7 -55.7 486.7 0L0 0Z" fill="#fb2c36"></path></g></svg>